<mxfile host="Electron" agent="Mozilla/5.0 (Windows NT 10.0; Win64; x64) AppleWebKit/537.36 (KHTML, like Gecko) draw.io/26.0.9 Chrome/128.0.6613.186 Electron/32.2.5 Safari/537.36" version="26.0.9">
  <diagram name="Page-1" id="s6thS9IbMFVx1m-ueALn">
    <mxGraphModel dx="2049" dy="1194" grid="1" gridSize="10" guides="1" tooltips="1" connect="1" arrows="1" fold="1" page="1" pageScale="1" pageWidth="850" pageHeight="420" math="0" shadow="0">
      <root>
        <mxCell id="0" />
        <mxCell id="1" parent="0" />
        <mxCell id="5u754qztrXLN08ZIF9fW-3" value="" style="edgeStyle=orthogonalEdgeStyle;rounded=0;orthogonalLoop=1;jettySize=auto;html=1;fontStyle=1;fontFamily=Courier New;" edge="1" parent="1" source="c3NgomEwf4D693YvPxA1-1" target="5u754qztrXLN08ZIF9fW-2">
          <mxGeometry relative="1" as="geometry" />
        </mxCell>
        <mxCell id="c3NgomEwf4D693YvPxA1-1" value="check_balance(username)" style="ellipse;whiteSpace=wrap;html=1;fontStyle=1;fontFamily=Courier New;" parent="1" vertex="1">
          <mxGeometry x="342.5" width="165" height="80" as="geometry" />
        </mxCell>
        <mxCell id="c3NgomEwf4D693YvPxA1-36" value="EXIT" style="ellipse;whiteSpace=wrap;html=1;fontStyle=1;fontFamily=Courier New;" parent="1" vertex="1">
          <mxGeometry x="365" y="760" width="120" height="80" as="geometry" />
        </mxCell>
        <mxCell id="5u754qztrXLN08ZIF9fW-5" value="" style="edgeStyle=orthogonalEdgeStyle;rounded=0;orthogonalLoop=1;jettySize=auto;html=1;fontStyle=1;fontFamily=Courier New;" edge="1" parent="1" source="5u754qztrXLN08ZIF9fW-2" target="5u754qztrXLN08ZIF9fW-4">
          <mxGeometry relative="1" as="geometry" />
        </mxCell>
        <mxCell id="5u754qztrXLN08ZIF9fW-2" value="EXECUTE SQL: &#39;SELECT balance FROM account WHERE username = ?&#39; WITH (username)" style="whiteSpace=wrap;html=1;fontStyle=1;fontFamily=Courier New;" vertex="1" parent="1">
          <mxGeometry x="348" y="120" width="155" height="90" as="geometry" />
        </mxCell>
        <mxCell id="5u754qztrXLN08ZIF9fW-7" value="" style="edgeStyle=orthogonalEdgeStyle;rounded=0;orthogonalLoop=1;jettySize=auto;html=1;fontStyle=1;fontFamily=Courier New;" edge="1" parent="1" source="5u754qztrXLN08ZIF9fW-4" target="5u754qztrXLN08ZIF9fW-6">
          <mxGeometry relative="1" as="geometry" />
        </mxCell>
        <mxCell id="5u754qztrXLN08ZIF9fW-4" value="fetch result" style="whiteSpace=wrap;html=1;fontStyle=1;fontFamily=Courier New;" vertex="1" parent="1">
          <mxGeometry x="365" y="240" width="120" height="60" as="geometry" />
        </mxCell>
        <mxCell id="5u754qztrXLN08ZIF9fW-9" value="" style="edgeStyle=orthogonalEdgeStyle;rounded=0;orthogonalLoop=1;jettySize=auto;html=1;fontStyle=1;fontFamily=Courier New;" edge="1" parent="1" source="5u754qztrXLN08ZIF9fW-6" target="5u754qztrXLN08ZIF9fW-8">
          <mxGeometry relative="1" as="geometry" />
        </mxCell>
        <mxCell id="5u754qztrXLN08ZIF9fW-11" value="" style="edgeStyle=orthogonalEdgeStyle;rounded=0;orthogonalLoop=1;jettySize=auto;html=1;fontStyle=1;fontFamily=Courier New;" edge="1" parent="1" source="5u754qztrXLN08ZIF9fW-6" target="5u754qztrXLN08ZIF9fW-10">
          <mxGeometry relative="1" as="geometry" />
        </mxCell>
        <mxCell id="5u754qztrXLN08ZIF9fW-6" value="if row" style="rhombus;whiteSpace=wrap;html=1;fontStyle=1;fontFamily=Courier New;" vertex="1" parent="1">
          <mxGeometry x="385" y="350" width="80" height="80" as="geometry" />
        </mxCell>
        <mxCell id="5u754qztrXLN08ZIF9fW-17" style="edgeStyle=orthogonalEdgeStyle;rounded=0;orthogonalLoop=1;jettySize=auto;html=1;exitX=0.5;exitY=1;exitDx=0;exitDy=0;entryX=0.5;entryY=0;entryDx=0;entryDy=0;fontStyle=1;fontFamily=Courier New;" edge="1" parent="1" source="5u754qztrXLN08ZIF9fW-8" target="5u754qztrXLN08ZIF9fW-16">
          <mxGeometry relative="1" as="geometry" />
        </mxCell>
        <mxCell id="5u754qztrXLN08ZIF9fW-8" value="balance = row[0]" style="whiteSpace=wrap;html=1;fontStyle=1;fontFamily=Courier New;" vertex="1" parent="1">
          <mxGeometry x="520" y="440" width="120" height="60" as="geometry" />
        </mxCell>
        <mxCell id="5u754qztrXLN08ZIF9fW-13" style="edgeStyle=orthogonalEdgeStyle;rounded=0;orthogonalLoop=1;jettySize=auto;html=1;entryX=0;entryY=0.5;entryDx=0;entryDy=0;exitX=0.466;exitY=1.008;exitDx=0;exitDy=0;exitPerimeter=0;fontStyle=1;fontFamily=Courier New;" edge="1" parent="1" source="5u754qztrXLN08ZIF9fW-10" target="5u754qztrXLN08ZIF9fW-12">
          <mxGeometry relative="1" as="geometry" />
        </mxCell>
        <mxCell id="5u754qztrXLN08ZIF9fW-10" value="print &quot;Username does not exist&quot;" style="shape=parallelogram;perimeter=parallelogramPerimeter;whiteSpace=wrap;html=1;fixedSize=1;fontStyle=1;fontFamily=Courier New;" vertex="1" parent="1">
          <mxGeometry x="200" y="440" width="168" height="60" as="geometry" />
        </mxCell>
        <mxCell id="5u754qztrXLN08ZIF9fW-15" style="edgeStyle=orthogonalEdgeStyle;rounded=0;orthogonalLoop=1;jettySize=auto;html=1;exitX=0.5;exitY=1;exitDx=0;exitDy=0;entryX=0.5;entryY=0;entryDx=0;entryDy=0;fontStyle=1;fontFamily=Courier New;" edge="1" parent="1" source="5u754qztrXLN08ZIF9fW-12" target="c3NgomEwf4D693YvPxA1-36">
          <mxGeometry relative="1" as="geometry" />
        </mxCell>
        <mxCell id="5u754qztrXLN08ZIF9fW-12" value="" style="ellipse;whiteSpace=wrap;html=1;aspect=fixed;fontStyle=1;fontFamily=Courier New;" vertex="1" parent="1">
          <mxGeometry x="417" y="630" width="16" height="16" as="geometry" />
        </mxCell>
        <mxCell id="5u754qztrXLN08ZIF9fW-18" style="edgeStyle=orthogonalEdgeStyle;rounded=0;orthogonalLoop=1;jettySize=auto;html=1;exitX=0.5;exitY=1;exitDx=0;exitDy=0;entryX=1;entryY=0.5;entryDx=0;entryDy=0;fontStyle=1;fontFamily=Courier New;" edge="1" parent="1" source="5u754qztrXLN08ZIF9fW-16" target="5u754qztrXLN08ZIF9fW-12">
          <mxGeometry relative="1" as="geometry" />
        </mxCell>
        <mxCell id="5u754qztrXLN08ZIF9fW-16" value="print balance" style="shape=parallelogram;perimeter=parallelogramPerimeter;whiteSpace=wrap;html=1;fixedSize=1;fontStyle=1;fontFamily=Courier New;" vertex="1" parent="1">
          <mxGeometry x="496" y="540" width="168" height="60" as="geometry" />
        </mxCell>
      </root>
    </mxGraphModel>
  </diagram>
</mxfile>
